<?xml version="1.0" encoding="utf-8"?>
<!-- Generator: Adobe Illustrator 23.0.1, SVG Export Plug-In . SVG Version: 6.00 Build 0)  -->
<svg version="1.1" id="Layer_1" xmlns="http://www.w3.org/2000/svg" xmlns:xlink="http://www.w3.org/1999/xlink" x="0px" y="0px"
	 viewBox="0 0 53.28 60" style="enable-background:new 0 0 53.28 60;" xml:space="preserve">
<style type="text/css">
	.st0{fill:#0282C4;}
</style>
<path class="st0" d="M36.73,2.14c-0.85-0.55-1.91-0.75-2.92-0.58c-1,0.17-1.95,0.72-2.57,1.68c-0.43,0.67-0.69,1.39-0.74,2.14
	c-0.07,1.13,1.87,5.37,1.87,5.37s0.69,0.29,1.46,0.61c0.48,0.2,0.89,0.41,1.19,0.36c0.13-0.02,0.24-0.09,0.33-0.23
	c0.71-1.1,2.1-3.24,2.49-3.85C39.08,5.73,38.42,3.23,36.73,2.14z M10.54,45.2c1.21-0.62,11.47-6,11.47-6l2.36-5.63
	c-1.17-3.09,1-5.64,1-5.64l1.55-2.31l0.05-8.69l-4.23,1.99l1.83,8.62c0,0-1.63,0.89-2.51-1.36c-0.41-1.04-1.75-4.71-2.51-6.66
	c-0.72-1.85-0.52-2.53,1.06-3.48c1.58-0.95,7.02-4.21,7.02-4.21c1.6-0.93,2.93-0.78,4.18-0.25c0.18,0.07,2.22,0.86,3.15,1.21
	c0.28,0.11,0.56,0.36,0.61,0.66c0.31,2.06,0.97,5.86,0.52,7.74l-2.69,9.81l7.43,10.29L44.5,58.3c-1.79,0.63-2.9-0.24-3.6-2.23
	c-1.41-4.02-4.3-12.6-4.3-12.6l-9.02-8.45l-0.24,0.74l2.07,2.52c0,0-2.39,3.75-2.67,4.19c-0.48,0.75-1.4,1.07-2.45,1.4
	c-1.05,0.33-15.41,4.81-15.41,4.81C8.46,46.87,9.31,45.83,10.54,45.2z M36.25,23.74l-0.72,2.29c0,0,2.8,0.64,4.06,0.86
	c1.36,0.23,3.1,0.14,3.36-1.4L36.25,23.74z"/>
</svg>
