<svg xmlns="http://www.w3.org/2000/svg" xmlns:xlink="http://www.w3.org/1999/xlink" viewBox="0 0 120.17 195.3"><defs><style>.cls-1{fill:none;}.cls-2{fill:#fff;stroke:#0072b5;stroke-miterlimit:10;stroke-width:7px;}.cls-3{clip-path:url(#clip-path);}.cls-4{fill:#006fb5;}</style><clipPath id="clip-path"><rect class="cls-1" x="31.64" y="26.25" width="52.32" height="83.47"/></clipPath></defs><title>1platform spor pinleri</title><g id="katman_2" data-name="katman 2"><g id="spor_pinleri" data-name="spor pinleri"><g id="_1" data-name="1"><path class="cls-2" d="M60.08,3.5A56.61,56.61,0,0,0,3.5,60,57.56,57.56,0,0,0,7.86,81.77L60.08,187.41,109.73,87.14A56.51,56.51,0,0,0,60.08,3.5Z"/><g id="Resim_1" data-name="Resim 1"><g class="cls-3"><g class="cls-3"><path class="cls-4" d="M72.58,27.19a6,6,0,0,0-4.28-.85,5.49,5.49,0,0,0-3.75,2.46,6.43,6.43,0,0,0-1.08,3.13c-.1,1.65,2.74,7.86,2.74,7.86l2.13.9a3.9,3.9,0,0,0,1.75.52.7.7,0,0,0,.49-.34l3.64-5.64a5.9,5.9,0,0,0-1.64-8m-38.35,63C36,89.32,51,81.45,51,81.45l3.45-8.25C52.76,68.67,56,64.94,56,64.94l2.26-3.38.07-12.72-6.2,2.9,2.69,12.62s-2.39,1.31-3.68-2c-.6-1.52-2.56-6.9-3.67-9.75s-.77-3.71,1.55-5.1l10.29-6.16A6.34,6.34,0,0,1,65.38,41c.26.11,3.25,1.25,4.61,1.77a1.36,1.36,0,0,1,.89,1c.46,3,1.42,8.58.76,11.34L67.7,69.42,78.58,84.5,84,109.42c-2.62.92-4.25-.36-5.28-3.28-2.06-5.88-6.3-18.44-6.3-18.44L59.18,75.33l-.35,1.09,3,3.68s-3.5,5.5-3.92,6.14c-.7,1.09-2.05,1.57-3.59,2.05l-22.56,7a4.17,4.17,0,0,1,2.43-5.1M71.88,58.82l-1.06,3.36s4.1.94,6,1.26c2,.34,4.54.21,4.92-2Z"/></g></g></g></g></g></g></svg>