<?xml version="1.0" encoding="utf-8"?>
<!-- Generator: Adobe Illustrator 23.0.1, SVG Export Plug-In . SVG Version: 6.00 Build 0)  -->
<svg version="1.1" id="Layer_1" xmlns="http://www.w3.org/2000/svg" xmlns:xlink="http://www.w3.org/1999/xlink" x="0px" y="0px"
	 viewBox="0 0 53.28 60" style="enable-background:new 0 0 53.28 60;" xml:space="preserve">
<style type="text/css">
	.st0{fill:none;stroke:#0082C3;stroke-width:4;stroke-linecap:round;stroke-linejoin:round;stroke-miterlimit:10;}
	.st1{fill:#0082C3;}
	.st2{fill:#FFFFFF;}
</style>
<g>
	<g>
		<polygon class="st0" points="51.28,49.44 2,58 2,2 51.28,2 		"/>
		<polyline class="st0" points="18.79,55.08 18.79,34.4 34.49,34.4 34.49,52.36 		"/>
	</g>
	<g>
		<rect x="8.42" y="8.07" class="st1" width="36.44" height="9.07"/>
		<polygon class="st2" points="14.83,10.27 17.51,10.27 17.51,11.3 16.04,11.3 16.04,12.06 17.31,12.06 17.31,13.06 16.04,13.06 
			16.04,13.91 17.51,13.91 17.51,14.93 14.83,14.93 		"/>
		<g>
			<path class="st2" d="M23.02,10.27c0,0-1.55,2.63-1.7,2.86c-0.18,0.28-0.56,0.72-1.14,0.71c-0.95-0.01-1.3-0.67-1.3-1.25
				c0-0.67,0.53-1.24,1.23-1.25c0.79-0.02,1.37,0.73,1.37,0.73l0.62-0.99c0,0-0.7-0.94-1.98-0.91c-1.93,0.04-2.49,1.65-2.49,2.39
				c0,1.57,1.21,2.35,2.2,2.45c1.43,0.14,2.21-0.79,2.21-0.79s-0.01,0,0.04,0c0.29,0,1.05,0,1.05,0v0.7h1.16v-4.66H23.02z
				 M23.14,13.25h-0.62l0.62-1.05V13.25z"/>
		</g>
		<polygon class="st2" points="25.46,14.93 25.46,11.38 24.53,11.38 24.53,10.27 27.6,10.27 27.6,11.38 26.67,11.38 26.67,14.93 		
			"/>
		<polygon class="st2" points="30.29,13.15 29.06,13.15 29.06,14.93 27.85,14.93 27.85,10.27 29.06,10.27 29.06,12.04 30.29,12.04 
			30.29,10.27 31.5,10.27 31.5,14.93 30.29,14.93 		"/>
		<polygon class="st2" points="31.87,14.93 31.87,10.27 33.07,10.27 33.07,13.9 34.47,13.9 34.47,14.93 		"/>
		<g>
			<path class="st2" d="M34.5,10.86c0.47-0.46,1.06-0.69,1.73-0.69c0.63,0,1.24,0.24,1.7,0.69c0.48,0.47,0.73,1.07,0.73,1.71
				c0,0.67-0.24,1.27-0.69,1.73c-0.46,0.47-1.09,0.73-1.75,0.73c-0.7,0-1.3-0.25-1.77-0.74c-0.45-0.47-0.67-1.05-0.67-1.74
				C33.78,11.91,34.03,11.31,34.5,10.86 M36.22,13.87c0.68,0,1.24-0.54,1.24-1.3c0-0.69-0.56-1.23-1.22-1.23
				c-0.71,0-1.26,0.55-1.26,1.23C34.98,13.3,35.57,13.87,36.22,13.87"/>
		</g>
		<polygon class="st2" points="38.55,14.93 38.55,10.27 39.64,10.27 41.45,12.86 41.45,10.27 42.66,10.27 42.66,14.93 41.6,14.93 
			39.76,12.33 39.76,14.93 		"/>
		<g>
			<path class="st2" d="M10.62,14.93v-4.66h1.68c0.78,0,1.33,0.1,1.84,0.56c0.47,0.42,0.72,1.03,0.72,1.8
				c0,0.71-0.24,1.29-0.71,1.73c-0.53,0.48-0.99,0.58-1.68,0.58H10.62z M13.67,12.58c0-0.84-0.48-1.31-1.36-1.31h-0.48v2.63h0.48
				C13.23,13.91,13.67,13.5,13.67,12.58"/>
		</g>
	</g>
</g>
</svg>
