<?xml version="1.0" encoding="utf-8"?>
<!-- Generator: Adobe Illustrator 23.0.1, SVG Export Plug-In . SVG Version: 6.00 Build 0)  -->
<svg version="1.1" id="Layer_1_xA0_Image_1_" xmlns="http://www.w3.org/2000/svg" xmlns:xlink="http://www.w3.org/1999/xlink"
	 x="0px" y="0px" viewBox="0 0 48.7 64.8" style="enable-background:new 0 0 48.7 64.8;" xml:space="preserve">
<style type="text/css">
	.st0{fill:#FFFFFF;}
	.st1{fill:#3487C7;}
	.st2{fill:#0078B8;}
</style>
<rect x="26.3" y="15.4" class="st0" width="0" height="0.9"/>
<rect x="26.3" y="16.8" class="st0" width="0" height="0.9"/>
<rect x="25.1" y="15.4" class="st0" width="0" height="2.4"/>
<path class="st0" d="M29.2,17.8C29.2,17.8,29.2,17.8,29.2,17.8C29.2,17.8,29.2,17.8,29.2,17.8L29.2,17.8z"/>
<path class="st0" d="M22.9,17.4h-0.6c-0.1,0.1-0.1,0.1-0.2,0.2c-0.2,0.1-0.4,0.2-0.6,0.2c0.2,0,0.4-0.1,0.6-0.2
	c0.1,0,0.1-0.1,0.2-0.2H22.9v0.4h0.6l0,0h-0.6V17.4z"/>
<path class="st0" d="M29.2,15.3c0.3,0,0.6,0.1,0.9,0.4C29.9,15.4,29.5,15.3,29.2,15.3z"/>
<path class="st0" d="M21.4,17.8L21.4,17.8C21.4,17.8,21.4,17.8,21.4,17.8C21.4,17.8,21.4,17.8,21.4,17.8z"/>
<path class="st0" d="M20.1,16.5c0-0.3,0.1-0.5,0.2-0.7c0.3-0.4,0.6-0.5,1-0.5c0.4,0,0.6,0.1,0.8,0.3c0.1,0.1,0.1,0.1,0.1,0.1l0,0
	c-0.1-0.1-0.1-0.1-0.1-0.1c-0.2-0.2-0.4-0.3-0.8-0.3c-0.4,0-0.7,0.1-1,0.5C20.2,16,20.1,16.2,20.1,16.5c0,0.4,0.1,0.6,0.3,0.9
	c0.1,0.1,0.2,0.1,0.2,0.2c-0.1,0-0.2-0.1-0.2-0.2C20.3,17.2,20.1,16.9,20.1,16.5z"/>
<polygon class="st0" points="19.4,17.2 20.1,17.2 20.1,17.2 "/>
<polygon class="st0" points="18.8,15.4 20.1,15.4 20.1,15.4 "/>
<polygon class="st0" points="19.4,16.3 20,16.3 20,16.3 "/>
<path class="st0" d="M30.1,15.7c0.1,0.1,0.2,0.3,0.3,0.5C30.3,16,30.2,15.8,30.1,15.7z"/>
<path class="st0" d="M21.4,17.2c0.4,0,0.5-0.3,0.5-0.3l0.9-1.5h0.6l0,0h-0.6l-0.9,1.5C21.9,16.9,21.7,17.2,21.4,17.2
	c-0.3,0-0.5-0.2-0.6-0.4C20.9,17,21.1,17.2,21.4,17.2z"/>
<path class="st0" d="M29.2,15.9L29.2,15.9c0.3,0,0.6,0.3,0.6,0.6c0,0.4-0.3,0.7-0.6,0.7l0,0c0.4,0,0.6-0.3,0.6-0.7
	C29.8,16.2,29.6,15.9,29.2,15.9z"/>
<polygon class="st0" points="21.3,36 28,34.9 28,27.8 21.3,27.8 "/>
<rect x="31.8" y="15.4" class="st0" width="0" height="1.3"/>
<polygon class="st1" points="22.9,16.9 22.9,16.4 22.5,16.9 "/>
<path class="st1" d="M17.6,15.9h-0.2v1.4h0.2c0.5,0,0.7-0.2,0.7-0.7C18.3,16.1,18,15.9,17.6,15.9z"/>
<path class="st1" d="M29.8,16.5c0-0.4-0.3-0.6-0.6-0.6c-0.4,0-0.6,0.3-0.6,0.6c0,0.4,0.3,0.7,0.6,0.7C29.6,17.2,29.8,16.9,29.8,16.5
	z"/>
<path class="st2" d="M33.6,14.3h-18v4.5h18V14.3z M20.1,17.2v0.5l0,0h-1.3l0,0v-1c0,0.3-0.1,0.5-0.3,0.7c-0.3,0.2-0.5,0.3-0.8,0.3
	h-0.9l0,0v-2.4h0.8c0.4,0,0.6,0.1,0.9,0.3c0.2,0.2,0.3,0.4,0.3,0.7v-1l0,0h1.3l0,0v0.5l0,0h-0.7v0.4H20l0,0v0.5l0,0h-0.6v0.4
	L20.1,17.2L20.1,17.2z M23.4,17.7L23.4,17.7L23.4,17.7L23.4,17.7L23.4,17.7h-0.6v-0.3h-0.6c-0.1,0.1-0.1,0.1-0.2,0.2
	c-0.2,0.1-0.4,0.2-0.6,0.2c0,0-0.1,0-0.1,0l0,0l0,0c0,0,0,0,0,0c-0.2,0-0.4,0-0.6-0.2c-0.1,0-0.2-0.1-0.2-0.2
	c-0.2-0.2-0.3-0.5-0.3-0.9c0-0.3,0.1-0.5,0.2-0.7c0.3-0.4,0.6-0.5,1-0.5c0.4,0,0.6,0.1,0.8,0.3c0.1,0.1,0.1,0.1,0.1,0.1l0,0l0,0
	L22,16.3c0-0.1-0.1-0.1-0.1-0.2c0,0-0.2-0.2-0.5-0.2c-0.4,0-0.6,0.3-0.6,0.6c0,0.1,0,0.2,0,0.3c0.1,0.2,0.3,0.4,0.6,0.4
	c0.4,0,0.5-0.3,0.5-0.3l0.9-1.5h0.6l0,0l0,0C23.4,15.4,23.4,17.7,23.4,17.7z M25,15.9h-0.5v1.8H24v-1.8h-0.5v-0.6H25V15.9z
	 M26.9,17.8h-0.6l0,0v-0.9h-0.6v0.9l0,0h-0.6l0,0v-2.4l0,0h0.6l0,0v0.9h0.6v-0.9l0,0h0.6V17.8z M32.4,17.8L32.4,17.8h-0.5L31,16.4
	v1.3l0,0h-0.6l0,0v-0.8c-0.1,0.2-0.1,0.4-0.3,0.5c-0.2,0.2-0.5,0.4-0.9,0.4c0,0,0,0,0,0l0,0l0,0c-0.2,0-0.3,0-0.4-0.1
	c-0.1,0-0.3-0.1-0.4-0.2v0.2h-1.3v-2.4h0.6v1.9h0.5C28,17,28,16.8,28,16.5c0-0.3,0.1-0.6,0.4-0.9c0.2-0.2,0.5-0.4,0.9-0.4
	c0.3,0,0.6,0.1,0.9,0.4c0.1,0.1,0.2,0.3,0.3,0.5v-0.8h0.5l0.9,1.3v-1.3l0,0h0.6l0,0L32.4,17.8L32.4,17.8z"/>
<path class="st0" d="M19.4,17.2v-0.4l0,0H20v-0.5h-0.6l0,0v-0.4l0,0h0.7v-0.5h-1.3v1c0-0.3-0.1-0.5-0.3-0.7
	c-0.2-0.2-0.5-0.3-0.9-0.3h-0.8v2.4h0.9c0.3,0,0.6,0,0.8-0.3c0.2-0.2,0.3-0.4,0.3-0.7l0,0v1h1.3v-0.5L19.4,17.2L19.4,17.2z
	 M17.6,17.2h-0.2l0,0v-1.4h0.2c0.4,0,0.7,0.2,0.7,0.7C18.3,17,18,17.2,17.6,17.2z"/>
<path class="st0" d="M17.6,15.9c0.4,0,0.7,0.2,0.7,0.7C18.3,16.1,18,15.9,17.6,15.9z"/>
<path class="st0" d="M17.6,17.2h-0.2l0,0H17.6c0.5,0,0.7-0.2,0.7-0.7C18.3,17,18,17.2,17.6,17.2z"/>
<path class="st0" d="M18.5,17.5c-0.3,0.2-0.5,0.3-0.8,0.3h-0.9l0,0h0.9C18,17.8,18.2,17.7,18.5,17.5c0.2-0.2,0.3-0.4,0.3-0.7l0,0
	C18.8,17.1,18.7,17.3,18.5,17.5z"/>
<polygon class="st0" points="19.4,15.9 20.1,15.9 20.1,15.9 "/>
<path class="st0" d="M17.6,15.4c0.4,0,0.6,0.1,0.9,0.3C18.2,15.4,18,15.4,17.6,15.4z"/>
<polygon class="st0" points="18.8,17.7 20.1,17.7 20.1,17.7 "/>
<polygon class="st0" points="19.4,16.8 20,16.8 20,16.8 "/>
<path class="st0" d="M22.8,15.4l-0.9,1.5c0,0-0.2,0.3-0.5,0.3c-0.3,0-0.5-0.2-0.6-0.4c0-0.1,0-0.2,0-0.3c0-0.4,0.3-0.6,0.6-0.6
	c0.3,0,0.5,0.2,0.5,0.2c0.1,0.1,0.1,0.1,0.1,0.2l0.3-0.6c-0.1-0.1-0.1-0.1-0.1-0.1c-0.2-0.2-0.4-0.3-0.8-0.3c-0.4,0-0.7,0.1-1,0.5
	c-0.2,0.2-0.2,0.4-0.2,0.7c0,0.4,0.1,0.6,0.3,0.9c0.1,0.1,0.2,0.1,0.2,0.2c0.2,0.1,0.5,0.2,0.6,0.2c0,0,0,0,0,0c0,0,0.1,0,0.1,0
	c0.2,0,0.4-0.1,0.6-0.2c0.1,0,0.1-0.1,0.2-0.2h0.5v0.4h0.6v-2.4L22.8,15.4L22.8,15.4z M22.9,16.9h-0.3l0.3-0.5V16.9z"/>
<path class="st0" d="M21.4,17.8c0,0,0.1,0,0.1,0C21.5,17.8,21.4,17.8,21.4,17.8L21.4,17.8z"/>
<rect x="23.4" y="15.4" class="st0" width="0" height="2.4"/>
<path class="st0" d="M21.9,16.1c0,0-0.2-0.2-0.5-0.2c-0.4,0-0.6,0.3-0.6,0.6c0,0.1,0,0.2,0,0.3c0-0.1,0-0.2,0-0.3
	c0-0.4,0.3-0.6,0.6-0.6C21.7,15.9,21.9,16.1,21.9,16.1c0.1,0.1,0.1,0.1,0.1,0.2l0.3-0.6l0,0L22,16.3C22,16.2,21.9,16.2,21.9,16.1z"
	/>
<path class="st0" d="M21.3,17.8c-0.2,0-0.4,0-0.6-0.2C21,17.7,21.2,17.8,21.3,17.8z"/>
<polygon class="st0" points="23.5,15.9 24,15.9 24,17.8 24.6,17.8 24.6,15.9 25,15.9 25,15.4 23.5,15.4 "/>
<polygon class="st0" points="26.3,16.3 26.3,16.3 25.7,16.3 25.7,16.3 25.7,15.4 25.1,15.4 25.1,17.8 25.7,17.8 25.7,16.8 
	26.3,16.8 26.3,16.8 26.3,16.8 26.3,17.8 26.9,17.8 26.9,15.4 26.3,15.4 "/>
<polygon class="st0" points="25.7,16.8 25.7,17.8 25.7,17.8 25.7,16.8 26.3,16.8 26.3,16.8 "/>
<rect x="25.7" y="15.4" class="st0" width="0" height="0.9"/>
<path class="st0" d="M32.4,17.8v-2.4h-0.6v1.3l0,0l-0.9-1.3h-0.5v0.8c-0.1-0.2-0.2-0.4-0.3-0.5c-0.2-0.2-0.5-0.4-0.9-0.4
	c-0.3,0-0.6,0.1-0.9,0.4c-0.2,0.2-0.4,0.5-0.4,0.9c0,0.3,0.1,0.5,0.2,0.7h-0.5v-1.9h-0.6v2.4h1.3v-0.2c0.1,0.1,0.2,0.2,0.4,0.2
	s0.3,0.1,0.4,0.1c0,0,0,0,0,0c0.3,0,0.6-0.1,0.9-0.4c0.1-0.1,0.2-0.3,0.3-0.5v0.8H31v-1.3l0.9,1.3H32.4z M29.2,17.2L29.2,17.2
	L29.2,17.2c-0.3,0-0.6-0.3-0.6-0.7c0-0.4,0.3-0.6,0.6-0.6l0,0l0,0c0.3,0,0.6,0.3,0.6,0.6C29.8,16.9,29.6,17.2,29.2,17.2z"/>
<path class="st0" d="M28.6,16.5c0-0.4,0.3-0.6,0.6-0.6l0,0C28.9,15.9,28.6,16.2,28.6,16.5c0,0.4,0.3,0.7,0.6,0.7l0,0
	C28.9,17.2,28.6,16.9,28.6,16.5z"/>
<path class="st0" d="M29.2,17.8L29.2,17.8c-0.2,0-0.3,0-0.4-0.1C28.9,17.8,29.1,17.8,29.2,17.8z"/>
<path class="st0" d="M30.4,16.9c-0.1,0.2-0.1,0.4-0.3,0.5C30.2,17.3,30.3,17.1,30.4,16.9z"/>
<polygon class="st0" points="30.4,17.8 31,17.8 31,17.8 "/>
<path class="st0" d="M30.1,17.4c-0.2,0.2-0.5,0.4-0.9,0.4C29.6,17.8,29.9,17.7,30.1,17.4z"/>
<rect x="32.4" y="15.4" class="st0" width="0" height="2.4"/>
<polygon class="st0" points="31.9,17.8 31,16.4 31.9,17.8 32.4,17.8 32.4,17.8 32.4,17.8 "/>
<path class="st2" d="M19.8,26.3c0,0,0.5,0,1.2,0L19.8,26.3L19.8,26.3z"/>
<path class="st2" d="M27.2,58.8c1.1-1.2,2.2-2.4,3.2-3.6c1.9-2.3,4.1-5.1,6.2-8c3.9-5.3,6.5-9.9,8.4-14.7c1.6-4.1,2.1-7.9,1.5-11.4
	c-1-5.9-3.8-10.7-8.4-14.3C34.6,4,30.7,2.4,26.4,2.1C25.7,2,25,2,24.3,2c-0.7,0-1.4,0-2,0.1c-0.5,0-1.1,0.1-1.6,0.2
	c-1.1,0.2-2.1,0.4-3.1,0.7c-2.5,0.8-4.8,2-7,3.7C6,10.3,3.2,15.1,2.2,21c-0.6,3.6-0.1,7.3,1.5,11.4c1.8,4.8,4.5,9.4,8.4,14.7
	c2.1,2.9,4.4,5.7,6.2,8c1,1.2,2.1,2.4,3.2,3.6l0.9,1c0.6,0.6,1.2,1.3,1.8,1.9l0.1,0.2l0.1-0.2c0.6-0.6,1.2-1.3,1.8-1.9L27.2,58.8z
	 M21.3,37.5l-10.1,1.6v-28H38v23.6v0l-8.5,1.4L21.3,37.5z"/>
<path class="st2" d="M38,34.8V11.2H11.2v28l10.1-1.6l8.2-1.3L38,34.8z M21,26.3c-0.7,0-1.2,0-1.2,0v9.9l-7.1,1.1V12.7h23.8v20.8
	l-7,1.1v-8.4H21z M28,34.9L21.3,36v-8.2H28V34.9z"/>
<polygon class="st2" points="38,34.8 38,34.8 29.5,36.2 "/>
<path class="st0" d="M27.7,61.1l0.9-1c1.1-1.2,2.2-2.4,3.2-3.7c1.9-2.4,4.2-5.2,6.3-8.1c4-5.4,6.7-10.2,8.6-15.1
	c1.7-4.5,2.3-8.6,1.6-12.5C47.3,14.3,44.3,9,39.3,5.1c-3.7-2.9-8-4.6-12.7-5C25.8,0,25,0,24.3,0c-0.7,0-1.5,0-2.2,0.1
	c-4.7,0.4-9,2.1-12.7,5c-5,3.9-8,9.2-9.1,15.6c-0.7,3.9-0.1,8,1.6,12.5c1.9,4.9,4.6,9.7,8.6,15.1c2.2,2.9,4.4,5.8,6.3,8.1
	c1,1.3,2.2,2.5,3.2,3.7l0.9,1c0.6,0.7,1.2,1.3,1.8,1.9l1.6,1.7l1.6-1.7C26.5,62.4,27.2,61.8,27.7,61.1z M24.3,61.9l-0.1-0.2
	c-0.6-0.6-1.2-1.3-1.8-1.9l-0.9-1c-1.1-1.2-2.2-2.4-3.2-3.6c-1.9-2.3-4.1-5.1-6.2-8c-3.9-5.3-6.5-9.9-8.4-14.7
	C2.1,28.3,1.7,24.6,2.2,21c1-5.9,3.8-10.7,8.4-14.3c2.1-1.7,4.5-2.9,7-3.7c1-0.3,2-0.5,3.1-0.7c0.5-0.1,1.1-0.1,1.6-0.2
	C23,2,23.7,2,24.3,2c0.7,0,1.3,0,2,0.1c4.3,0.4,8.2,1.9,11.7,4.6c4.6,3.6,7.4,8.4,8.4,14.3c0.6,3.6,0.1,7.3-1.5,11.4
	c-1.8,4.8-4.5,9.4-8.4,14.7c-2.1,2.9-4.4,5.7-6.2,8c-1,1.2-2.1,2.4-3.2,3.6l-0.9,1c-0.6,0.6-1.2,1.3-1.8,1.9L24.3,61.9z"/>
<path class="st2" d="M17.6,3c1-0.3,2-0.5,3.1-0.7C19.6,2.4,18.6,2.7,17.6,3z"/>
<polygon class="st0" points="21.3,36 28,34.9 28,27.8 21.3,27.8 "/>
<path class="st0" d="M29.5,34.7l7-1.1V12.7H12.7v24.7l7.1-1.1v-9.9v0H21h8.5V34.7z M15.6,18.8v-4.5h18v4.5H15.6z"/>
</svg>
